<svg xmlns="http://www.w3.org/2000/svg" viewBox="0 0 320.22 320.22"><defs><style>.cls-1{fill:#fff;}.cls-2{fill:#3498db;}.cls-3{fill:#606062;}.cls-4{fill:#4b4b4d;}</style></defs><title>Logo Basic</title><g id="Layer_2" data-name="Layer 2"><g id="Layer_1-2" data-name="Layer 1"><circle class="cls-1" cx="160.11" cy="160.11" r="160.11"/><path class="cls-2" d="M133.42,314.23q3.72,2.59,7.68,4.83c-2.58-.3-5.14-.67-7.68-1.09A160.12,160.12,0,0,1,91.29,15.52V233.69A98,98,0,0,0,133.42,314.23Z"/><path class="cls-3" d="M220.87,276.17a55.43,55.43,0,0,0-25.69-100.39,56.77,56.77,0,0,0-6.28-.37,55.47,55.47,0,0,0-17.23,2.76v42.91A55.46,55.46,0,0,0,220.87,276.17Z"/><path class="cls-3" d="M283.11,262.58A160,160,0,0,0,171.67.47V137.24A98.09,98.09,0,0,1,283.11,262.58Z"/><path class="cls-4" d="M133.42,230.88a55.43,55.43,0,0,0,87.45,45.29,55.47,55.47,0,0,1-49.2-55.1V.46C167.85.19,164,0,160.11,0a160.84,160.84,0,0,0-26.69,2.26V230.88Z"/></g></g></svg>